<svg width="1280" height="640" viewBox="0 0 1280 640" fill="none" xmlns="http://www.w3.org/2000/svg">
  <defs>
    <linearGradient id="bg" x1="40" y1="32" x2="1230" y2="620" gradientUnits="userSpaceOnUse">
      <stop stop-color="#0B1220"/>
      <stop offset="0.5" stop-color="#13213A"/>
      <stop offset="1" stop-color="#0A7B83"/>
    </linearGradient>
    <linearGradient id="panel" x1="115" y1="120" x2="1010" y2="510" gradientUnits="userSpaceOnUse">
      <stop stop-color="#FFFFFF" stop-opacity="0.09"/>
      <stop offset="1" stop-color="#FFFFFF" stop-opacity="0.03"/>
    </linearGradient>
    <linearGradient id="accent" x1="845" y1="162" x2="1088" y2="408" gradientUnits="userSpaceOnUse">
      <stop stop-color="#F59E0B"/>
      <stop offset="1" stop-color="#FB7185"/>
    </linearGradient>
    <filter id="blur">
      <feGaussianBlur stdDeviation="30"/>
    </filter>
  </defs>

  <rect width="1280" height="640" rx="36" fill="url(#bg)"/>
  <circle cx="1062" cy="122" r="108" fill="#38BDF8" fill-opacity="0.14" filter="url(#blur)"/>
  <circle cx="1138" cy="510" r="124" fill="#F59E0B" fill-opacity="0.16" filter="url(#blur)"/>

  <rect x="88" y="96" width="1104" height="448" rx="30" fill="url(#panel)" stroke="#FFFFFF" stroke-opacity="0.12"/>

  <text x="140" y="182" fill="#E5EEF9" font-family="Arial, sans-serif" font-size="28" font-weight="700">Browser Ops Routing</text>
  <text x="140" y="228" fill="#8FB4D8" font-family="Arial, sans-serif" font-size="22">Bilingual skill for reliable browser-heavy agent workflows</text>

  <g transform="translate(140 292)">
    <rect x="0" y="0" width="180" height="58" rx="16" fill="#0E1A2D" stroke="#2A4365"/>
    <text x="90" y="35" text-anchor="middle" fill="#DCEBFF" font-family="Arial, sans-serif" font-size="24" font-weight="700">API / CLI</text>

    <path d="M195 29H265" stroke="#6AA4D9" stroke-width="4" stroke-linecap="round"/>
    <path d="M251 16L267 29L251 42" stroke="#6AA4D9" stroke-width="4" stroke-linecap="round" stroke-linejoin="round"/>

    <rect x="280" y="0" width="318" height="58" rx="16" fill="#10233C" stroke="#365D8A"/>
    <text x="439" y="35" text-anchor="middle" fill="#DCEBFF" font-family="Arial, sans-serif" font-size="24" font-weight="700">Structured Browser</text>

    <path d="M613 29H683" stroke="#6AA4D9" stroke-width="4" stroke-linecap="round"/>
    <path d="M669 16L685 29L669 42" stroke="#6AA4D9" stroke-width="4" stroke-linecap="round" stroke-linejoin="round"/>

    <rect x="698" y="0" width="240" height="58" rx="16" fill="#143150" stroke="#4F77A8"/>
    <text x="818" y="35" text-anchor="middle" fill="#E7F2FF" font-family="Arial, sans-serif" font-size="24" font-weight="700">Visual Control</text>
  </g>

  <g transform="translate(140 404)">
    <rect x="0" y="0" width="574" height="76" rx="22" fill="#091321" stroke="#24405F"/>
    <text x="28" y="33" fill="#9EC3E6" font-family="Arial, sans-serif" font-size="20" font-weight="700">Route First. Escalate Only When Needed.</text>
    <text x="28" y="59" fill="#D6E6F6" font-family="Arial, sans-serif" font-size="18">Keep browser work understandable, resilient, and safer for agents.</text>
  </g>

  <g transform="translate(840 186)">
    <rect x="0" y="0" width="250" height="232" rx="28" fill="#0B1627" stroke="#2B4868"/>
    <rect x="24" y="24" width="202" height="58" rx="18" fill="url(#accent)"/>
    <text x="125" y="60" text-anchor="middle" fill="#0B1220" font-family="Arial, sans-serif" font-size="22" font-weight="800">Human Confirmation</text>

    <text x="24" y="118" fill="#F0F7FF" font-family="Arial, sans-serif" font-size="18" font-weight="700">Always stop for:</text>
    <text x="24" y="152" fill="#CFE1F4" font-family="Arial, sans-serif" font-size="17">• OAuth and first login</text>
    <text x="24" y="180" fill="#CFE1F4" font-family="Arial, sans-serif" font-size="17">• Verification codes</text>
    <text x="24" y="208" fill="#CFE1F4" font-family="Arial, sans-serif" font-size="17">• Posting, deletion, payments</text>
  </g>
</svg>
